<svg xmlns="http://www.w3.org/2000/svg" width="394.27398681640625" height="419.5795593261719" viewBox="-103.52864074707031 -111.3853759765625 394.27398681640625 419.5795593261719"><title>Neo4j Graph Visualization</title><desc>Created using Neo4j (http://www.neo4j.com/)</desc><g class="layer relationships"><g class="relationship" transform="translate(97.28674118887237 -82.38537653148433) rotate(406.5662954696452)"><path class="outline" fill="#A5ABB6" stroke="none" d="M 24.018736134675446,-6.953439040707552 L 24.277555179777966,-5.987513214418485 A 109.30848808230189 109.30848808230189 0 0 1 41.25154926167902,-9.124678664463715 L 41.14801544995308,-10.119304599089148 A 110.30848808230189 110.30848808230189 0 0 0 24.018736134675446,-6.953439040707552 Z M 60.54452828170639,-10.423384706304347 L 60.47222328747135,-9.426002137874022 A 109.30848808230189 109.30848808230189 0 0 1 77.53621485792914,-6.822451900848685 L 76.85097417051911,-3.9017593116983273 L 84.46537101384831,-5.710339061750322 L 78.44986910780919,-10.716708686382495 L 77.76462842039916,-7.796016097232138 A 110.30848808230189 110.30848808230189 0 0 0 60.54452828170639,-10.423384706304347"/><text text-anchor="middle" pointer-events="none" font-size="8px" fill="#000000" x="50.84741200049853" y="-7.198618301289585" font-family="sans-serif">trek</text></g><g class="relationship" transform="translate(172.09142902994557 -3.374790797844426) rotate(397.64032184332143)"><path class="outline" fill="#A5ABB6" stroke="none" d="M 21.40063509461097,-12.933012701892217 L 21.90063509461097,-12.06698729810778 A 65.89404595386479 65.89404595386479 0 0 1 43.37828401650925,-19.88927148353281 L 43.20422619551789,-20.8740069175209 A 66.89404595386479 66.89404595386479 0 0 0 21.40063509461097,-12.933012701892217 Z M 62.60865318845085,-21.443377893896326 L 62.49263396721463,-20.45013092546212 A 65.89404595386479 65.89404595386479 0 0 1 84.39198449703184,-13.900628695363759 L 83.04690121987929,-11.219071129782789 L 90.8731326962462,-11.209027309604627 L 86.18542886656857,-17.476038782805055 L 84.84034558941602,-14.794481217224083 A 66.89404595386479 66.89404595386479 0 0 0 62.60865318845085,-21.443377893896326"/><text text-anchor="middle" pointer-events="none" font-size="8px" fill="#000000" x="52.90034060161234" y="-18.366552234814606" font-family="sans-serif">trek</text></g><g class="relationship" transform="translate(261.74538592414257 65.7686174744555) rotate(491.62420029105556)"><path class="outline" fill="#A5ABB6" stroke="none" d="M 21.40063509461097,12.933012701892217 L 21.90063509461097,12.06698729810778 A 66.93312416710742 66.93312416710742 0 0 0 43.88108265207482,20.04141891409509 L 43.70947681910319,21.026584604773632 A 67.93312416710742 67.93312416710742 0 0 1 21.40063509461097,12.933012701892217 Z M 63.1139080419078,21.591184596664633 L 62.999873674156845,20.597707791212372 A 66.93312416710742 66.93312416710742 0 0 0 85.40679798427232,13.914790959077424 L 84.06039732630617,11.233894603708881 L 91.88662292312661,11.220005483051182 L 87.2019988615605,17.48931943290215 L 85.85559820359435,14.808423077533606 A 67.93312416710742 67.93312416710742 0 0 1 63.1139080419078,21.591184596664633"/><text text-anchor="middle" pointer-events="none" font-size="8px" fill="#000000" x="53.40596291704863" y="24.505799144485593" transform="rotate(180 53.40596291704863 21.505799144485593)" font-family="sans-serif">trek</text></g><g class="relationship" transform="translate(185.87073159045104 151.15562851213542) rotate(485.5986622778932)"><path class="outline" fill="#A5ABB6" stroke="none" d="M 25 0.5 L 44.49471308507484 0.5 L 44.49471308507484 -0.5 L 25 -0.5 Z M 63.83065058507484 0.5 L 83.32536367014968 0.5 L 83.32536367014968 3.5 L 90.32536367014968 0 L 83.32536367014968 -3.5 L 83.32536367014968 -0.5 L 63.83065058507484 -0.5 Z"/><text text-anchor="middle" pointer-events="none" font-size="8px" fill="#000000" x="54.16268183507484" y="3" transform="rotate(180 54.16268183507484 0)" font-family="sans-serif">trek</text></g><g class="relationship" transform="translate(261.74538592414257 65.7686174744555) rotate(491.62420029105556)"><path class="outline" fill="#A5ABB6" stroke="none" d="M 25 0.5 L 42.60785356726556 0.5 L 42.60785356726556 -0.5 L 25 -0.5 Z M 64.61957231726555 0.5 L 82.22742588453112 0.5 L 82.22742588453112 3.5 L 89.22742588453112 0 L 82.22742588453112 -3.5 L 82.22742588453112 -0.5 L 64.61957231726555 -0.5 Z"/><text text-anchor="middle" pointer-events="none" font-size="8px" fill="#000000" x="53.61371294226556" y="3" transform="rotate(180 53.61371294226556 0)" font-family="sans-serif">road</text></g><g class="relationship" transform="translate(261.74538592414257 65.7686174744555) rotate(491.62420029105556)"><path class="outline" fill="#A5ABB6" stroke="none" d="M 21.40063509461097,-12.933012701892217 L 21.90063509461097,-12.06698729810778 A 66.93312416710742 66.93312416710742 0 0 1 30.93780308159328,-16.416912233466526 L 30.57282095352796,-17.34792675869849 A 67.93312416710742 67.93312416710742 0 0 0 21.40063509461097,-12.933012701892217 Z M 76.4422303138393,-18.682563566936466 L 76.13199825261637,-17.731902708275832 A 66.93312416710742 66.93312416710742 0 0 1 85.40679798427232,-13.914790959077424 L 84.06039732630617,-11.233894603708881 L 91.88662292312661,-11.220005483051182 L 87.2019988615605,-17.48931943290215 L 85.85559820359435,-14.808423077533606 A 67.93312416710742 67.93312416710742 0 0 0 76.4422303138393,-18.682563566936466"/><text text-anchor="middle" pointer-events="none" font-size="8px" fill="#000000" x="53.40596291704863" y="-18.505799144485593" transform="rotate(180 53.40596291704863 -21.505799144485593)" font-family="sans-serif">twowheeler</text></g><g class="relationship" transform="translate(172.09142902994557 -3.374790797844426) rotate(397.64032184332143)"><path class="outline" fill="#A5ABB6" stroke="none" d="M 25 0.5 L 42.10386349637715 0.5 L 42.10386349637715 -0.5 L 25 -0.5 Z M 64.11558224637716 0.5 L 81.2194457427543 0.5 L 81.2194457427543 3.5 L 88.2194457427543 0 L 81.2194457427543 -3.5 L 81.2194457427543 -0.5 L 64.11558224637716 -0.5 Z"/><text text-anchor="middle" pointer-events="none" font-size="8px" fill="#000000" x="53.10972287137715" y="3" font-family="sans-serif">road</text></g><g class="relationship" transform="translate(172.09142902994557 -3.374790797844426) rotate(397.64032184332143)"><path class="outline" fill="#A5ABB6" stroke="none" d="M 21.40063509461097,12.933012701892217 L 21.90063509461097,12.06698729810778 A 65.89404595386479 65.89404595386479 0 0 0 30.452038859571463,16.2128254036788 L 30.081813919535875,17.141767540615028 A 66.89404595386479 66.89404595386479 0 0 1 21.40063509461097,12.933012701892217 Z M 75.92732558327526,18.486981380112596 L 75.61220534781708,17.537929623249575 A 65.89404595386479 65.89404595386479 0 0 0 84.39198449703184,13.900628695363759 L 83.04690121987929,11.219071129782789 L 90.8731326962462,11.209027309604627 L 86.18542886656857,17.476038782805055 L 84.84034558941602,14.794481217224083 A 66.89404595386479 66.89404595386479 0 0 1 75.92732558327526,18.486981380112596"/><text text-anchor="middle" pointer-events="none" font-size="8px" fill="#000000" x="52.90034060161234" y="24.366552234814606" font-family="sans-serif">twowheeler</text></g><g class="relationship" transform="translate(97.28674118887237 -82.38537653148433) rotate(406.5662954696452)"><path class="outline" fill="#A5ABB6" stroke="none" d="M 24.018736134675446,6.953439040707552 L 24.277555179777966,5.987513214418485 A 109.30848808230189 109.30848808230189 0 0 0 39.92778049217251,8.978726360375745 L 39.81213628725816,9.972017061968046 A 110.30848808230189 110.30848808230189 0 0 1 24.018736134675446,6.953439040707552 Z M 61.884367901502344,10.318044547112223 L 61.799916610612456,9.32161693836835 A 109.30848808230189 109.30848808230189 0 0 0 77.53621485792914,6.822451900848685 L 76.85097417051911,3.9017593116983273 L 84.46537101384831,5.710339061750322 L 78.44986910780919,10.716708686382495 L 77.76462842039916,7.796016097232138 A 110.30848808230189 110.30848808230189 0 0 1 61.884367901502344,10.318044547112223"/><text text-anchor="middle" pointer-events="none" font-size="8px" fill="#000000" x="50.84741200049852" y="13.198618301289585" font-family="sans-serif">road</text></g><g class="relationship" transform="translate(97.28674118887237 -82.38537653148433) rotate(490.75842176692896)"><path class="outline" fill="#A5ABB6" stroke="none" d="M 21.40063509461097,12.933012701892217 L 21.90063509461097,12.06698729810778 A 63.804658419983056 63.804658419983056 0 0 0 22.666436836598585,12.502103342222917 L 22.178439122339963,13.374948248766096 A 64.80465841998306 64.80465841998306 0 0 1 21.40063509461097,12.933012701892217 Z M 81.99739750513812,15.160491004930087 L 81.56232950404143,14.260093406964756 A 63.804658419983056 63.804658419983056 0 0 0 82.35272038053729,13.871428329771309 L 81.01035337554475,11.188509988876945 L 88.83659101012289,11.186391708271122 L 84.14254305386066,17.448652784297128 L 82.80017604886812,14.765734443402764 A 64.80465841998306 64.80465841998306 0 0 1 81.99739750513812,15.160491004930087"/><text text-anchor="middle" pointer-events="none" font-size="8px" fill="#000000" x="51.884381896922385" y="24.086563031694112" transform="rotate(180 51.884381896922385 21.086563031694112)" font-family="sans-serif">PublicTransport</text></g><g class="relationship" transform="translate(24.691233110124912 1.8408193482061463) rotate(402.81166346214377)"><path class="outline" fill="#A5ABB6" stroke="none" d="M 25 0.5 L 96.68846365842803 0.5 L 96.68846365842803 -0.5 L 25 -0.5 Z M 116.02440115842803 0.5 L 187.71286481685607 0.5 L 187.71286481685607 3.5 L 194.71286481685607 0 L 187.71286481685607 -3.5 L 187.71286481685607 -0.5 L 116.02440115842803 -0.5 Z"/><text text-anchor="middle" pointer-events="none" font-size="8px" fill="#000000" x="106.35643240842803" y="3" font-family="sans-serif">trek</text></g><g class="relationship" transform="translate(24.691233110124912 1.8408193482061463) rotate(494.16567686870667)"><path class="outline" fill="#A5ABB6" stroke="none" d="M 24.018736134675446,-6.953439040707552 L 24.277555179777966,-5.987513214418485 A 114.7674983330681 114.7674983330681 0 0 1 42.616724297218305,-9.334033043458533 L 42.51769935222083,-10.329117994740713 A 115.7674983330681 115.7674983330681 0 0 0 24.018736134675446,-6.953439040707552 Z M 61.91247547866288,-10.62613935535255 L 61.84396828894459,-9.62848873266097 A 114.7674983330681 114.7674983330681 0 0 1 80.27701364866604,-6.845117099068586 L 79.58965587255057,-3.9249220220893815 L 87.2053617909701,-5.727981467628999 L 81.19349068348669,-10.738710535040859 L 80.50613290737121,-7.818515458061654 A 115.7674983330681 115.7674983330681 0 0 0 61.91247547866288,-10.62613935535255"/><text text-anchor="middle" pointer-events="none" font-size="8px" fill="#000000" x="52.216512008553714" y="-7.3846061920208825" transform="rotate(180 52.216512008553714 -10.384606192020883)" font-family="sans-serif">trek</text></g><g class="relationship" transform="translate(-53.02286930964759 81.85182760098316) rotate(405.979814753513)"><path class="outline" fill="#A5ABB6" stroke="none" d="M 24.018736134675446,-6.953439040707552 L 24.277555179777966,-5.987513214418485 A 124.40585505756295 124.40585505756295 0 0 1 45.032897800513396,-9.699127418740758 L 44.940914493255626,-10.694887967861845 A 125.40585505756295 125.40585505756295 0 0 0 24.018736134675446,-6.953439040707552 Z M 64.3327767239575,-10.980191315867515 L 64.2701272014977,-9.982155726654597 A 124.40585505756295 124.40585505756295 0 0 1 85.12567725767688,-6.882743014535167 L 84.43480501247231,-3.9633774086533027 L 92.05267571226867,-5.757268710038132 L 86.04684025128299,-10.77523048904432 L 85.35596800607841,-7.855864883162456 A 125.40585505756295 125.40585505756295 0 0 0 64.3327767239575,-10.980191315867515"/><text text-anchor="middle" pointer-events="none" font-size="8px" fill="#000000" x="54.638677553743975" y="-7.713023655748998" font-family="sans-serif">trek</text></g><g class="relationship" transform="translate(27.851462184347763 165.54062648262018) rotate(401.1361817129346)"><path class="outline" fill="#A5ABB6" stroke="none" d="M 24.018736134675446,6.953439040707552 L 24.277555179777966,5.987513214418485 A 132.94210636643365 132.94210636643365 0 0 0 47.178335180186565,10.018452008160722 L 47.09177743457998,11.014698843375527 A 133.94210636643365 133.94210636643365 0 0 1 24.018736134675446,6.953439040707552 Z M 66.48123133859998,11.29034889916781 L 66.42302912462392,10.292044084850914 A 132.94210636643365 132.94210636643365 0 0 0 89.42914257699584,6.913740368102038 L 88.73537505937882,3.995061449224611 L 96.35502130731268,5.781395980141881 L 90.35416593381855,10.805312259938608 L 89.66039841620153,7.886633341061181 A 133.94210636643365 133.94210636643365 0 0 1 66.48123133859998,11.29034889916781"/><text text-anchor="middle" pointer-events="none" font-size="8px" fill="#000000" x="56.78861697313967" y="14.00392277846339" font-family="sans-serif">trek</text></g><g class="relationship" transform="translate(27.851462184347763 165.54062648262018) rotate(401.1361817129346)"><path class="outline" fill="#A5ABB6" stroke="none" d="M 24.018736134675446,-6.953439040707552 L 24.277555179777966,-5.987513214418485 A 132.94210636643365 132.94210636643365 0 0 1 33.79799872511244,-8.167089659768237 L 33.6107931349607,-9.149410415436137 A 133.94210636643365 133.94210636643365 0 0 0 24.018736134675446,-6.953439040707552 Z M 80.00979249764981,-9.809041513162924 L 79.85058723447548,-8.821796009664638 A 132.94210636643365 132.94210636643365 0 0 1 89.42914257699584,-6.913740368102038 L 88.73537505937882,-3.995061449224611 L 96.35502130731268,-5.781395980141881 L 90.35416593381855,-10.805312259938608 L 89.66039841620153,-7.886633341061181 A 133.94210636643365 133.94210636643365 0 0 0 80.00979249764981,-9.809041513162924"/><text text-anchor="middle" pointer-events="none" font-size="8px" fill="#000000" x="56.78861697313964" y="-8.00392277846339" font-family="sans-serif">twowheeler</text></g><g class="relationship" transform="translate(-53.02286930964759 81.85182760098316) rotate(405.979814753513)"><path class="outline" fill="#A5ABB6" stroke="none" d="M 24.018736134675446,6.953439040707552 L 24.277555179777966,5.987513214418485 A 124.40585505756295 124.40585505756295 0 0 0 31.67385714549891,7.729103597979446 L 31.474491105741667,8.7090286880713 A 125.40585505756295 125.40585505756295 0 0 1 24.018736134675446,6.953439040707552 Z M 77.851792909989,9.391356115876121 L 77.6813412743039,8.405990072269859 A 124.40585505756295 124.40585505756295 0 0 0 85.12567725767688,6.882743014535167 L 84.43480501247231,3.9633774086533027 L 92.05267571226867,5.757268710038132 L 86.04684025128299,10.77523048904432 L 85.35596800607841,7.855864883162456 A 125.40585505756295 125.40585505756295 0 0 1 77.851792909989,9.391356115876121"/><text text-anchor="middle" pointer-events="none" font-size="8px" fill="#000000" x="54.63867755374399" y="13.713023655748998" font-family="sans-serif">twowheeler</text></g><g class="relationship" transform="translate(24.691233110124912 1.8408193482061463) rotate(494.16567686870667)"><path class="outline" fill="#A5ABB6" stroke="none" d="M 24.018736134675446,6.953439040707552 L 24.277555179777966,5.987513214418485 A 114.7674983330681 114.7674983330681 0 0 0 29.287087600394575,7.209885744914601 L 29.071917955108006,8.186462430970153 A 115.7674983330681 115.7674983330681 0 0 1 24.018736134675446,6.953439040707552 Z M 75.41756339126762,8.896222965257252 L 75.23239921140042,7.913515365564393 A 114.7674983330681 114.7674983330681 0 0 0 80.27701364866604,6.845117099068586 L 79.58965587255057,3.9249220220893815 L 87.2053617909701,5.727981467628999 L 81.19349068348669,10.738710535040859 L 80.50613290737121,7.818515458061654 A 115.7674983330681 115.7674983330681 0 0 1 75.41756339126762,8.896222965257252"/><text text-anchor="middle" pointer-events="none" font-size="8px" fill="#000000" x="52.21651200855373" y="13.384606192020883" transform="rotate(180 52.21651200855373 10.384606192020883)" font-family="sans-serif">twowheeler</text></g><g class="relationship" transform="translate(97.28674118887237 -82.38537653148433) rotate(490.75842176692896)"><path class="outline" fill="#A5ABB6" stroke="none" d="M 25 0.5 L 41.09126255045464 0.5 L 41.09126255045464 -0.5 L 25 -0.5 Z M 63.10298130045464 0.5 L 79.19424385090927 0.5 L 79.19424385090927 3.5 L 86.19424385090927 0 L 79.19424385090927 -3.5 L 79.19424385090927 -0.5 L 63.10298130045464 -0.5 Z"/><text text-anchor="middle" pointer-events="none" font-size="8px" fill="#000000" x="52.09712192545464" y="3" transform="rotate(180 52.09712192545464 0)" font-family="sans-serif">road</text></g><g class="relationship" transform="translate(97.28674118887237 -82.38537653148433) rotate(490.75842176692896)"><path class="outline" fill="#A5ABB6" stroke="none" d="M 21.40063509461097,-12.933012701892217 L 21.90063509461097,-12.06698729810778 A 63.804658419983056 63.804658419983056 0 0 1 42.368331933897736,-19.582210702161518 L 42.189118806614175,-20.566020976050368 A 64.80465841998306 64.80465841998306 0 0 0 21.40063509461097,-12.933012701892217 Z M 61.593431772760546,-21.145222476573394 L 61.47321715149567,-20.15247455044404 A 63.804658419983056 63.804658419983056 0 0 1 82.35272038053729,-13.871428329771309 L 81.01035337554475,-11.188509988876945 L 88.83659101012289,-11.186391708271122 L 84.14254305386066,-17.448652784297128 L 82.80017604886812,-14.765734443402764 A 64.80465841998306 64.80465841998306 0 0 0 61.593431772760546,-21.145222476573394"/><text text-anchor="middle" pointer-events="none" font-size="8px" fill="#000000" x="51.884381896922385" y="-18.086563031694112" transform="rotate(180 51.884381896922385 -21.086563031694112)" font-family="sans-serif">trek</text></g><g class="relationship" transform="translate(24.691233110124912 1.8408193482061463) rotate(357.97349097712595)"><path class="outline" fill="#A5ABB6" stroke="none" d="M 25 0.5 L 60.578252079268765 0.5 L 60.578252079268765 -0.5 L 25 -0.5 Z M 79.91418957926876 0.5 L 115.49244165853753 0.5 L 115.49244165853753 3.5 L 122.49244165853753 0 L 115.49244165853753 -3.5 L 115.49244165853753 -0.5 L 79.91418957926876 -0.5 Z"/><text text-anchor="middle" pointer-events="none" font-size="8px" fill="#000000" x="70.24622082926876" y="3" font-family="sans-serif">trek</text></g><g class="relationship" transform="translate(-53.02286930964759 81.85182760098316) rotate(460.91680020215966)"><path class="outline" fill="#A5ABB6" stroke="none" d="M 24.018736134675446,-6.953439040707552 L 24.277555179777966,-5.987513214418485 A 118.7857609266653 118.7857609266653 0 0 1 43.62317178320221,-9.486893354441463 L 43.527214148865646,-10.482278773468948 A 119.7857609266653 119.7857609266653 0 0 0 24.018736134675446,-6.953439040707552 Z M 62.92075086159154,-10.774303517766299 L 62.85480664246325,-9.776480206772035 A 118.7857609266653 118.7857609266653 0 0 1 82.29701475483932,-6.861160868152516 L 81.60815839324853,-3.941318935256851 L 89.22478865852767,-5.740469679923273 L 83.21548990362705,-10.754283445346736 L 82.52663354203625,-7.834441512451071 A 119.7857609266653 119.7857609266653 0 0 0 62.92075086159154,-10.774303517766299"/><text text-anchor="middle" pointer-events="none" font-size="8px" fill="#000000" x="53.22559026553803" y="-7.521518828561611" transform="rotate(180 53.22559026553803 -10.52151882856161)" font-family="sans-serif">trek</text></g><g class="relationship" transform="translate(-74.52863896204431 193.35362032343028) rotate(344.80159686709374)"><path class="outline" fill="#A5ABB6" stroke="none" d="M 21.40063509461097,12.933012701892217 L 21.90063509461097,12.06698729810778 A 58.52855116880267 58.52855116880267 0 0 0 39.82507646738412,18.799279333986206 L 39.63132770741699,19.78033051410435 A 59.52855116880267 59.52855116880267 0 0 1 21.40063509461097,12.933012701892217 Z M 59.03453926838494,20.38585406438621 L 58.90234003902595,19.394630898919978 A 58.52855116880267 58.52855116880267 0 0 0 77.21168778456747,13.793100776250911 L 75.8766072169433,11.106549105809354 L 83.70282177686846,11.125671396868102 L 78.99179520806636,17.375169670172987 L 77.65671464044219,14.688617999731429 A 59.52855116880267 59.52855116880267 0 0 1 59.03453926838494,20.38585406438621"/><text text-anchor="middle" pointer-events="none" font-size="8px" fill="#000000" x="49.323680153699215" y="23.379603302033047" font-family="sans-serif">trek</text></g><g class="relationship" transform="translate(-74.52863896204431 193.35362032343028) rotate(344.80159686709374)"><path class="outline" fill="#A5ABB6" stroke="none" d="M 25 0.5 L 38.53951680694072 0.5 L 38.53951680694072 -0.5 L 25 -0.5 Z M 60.55123555694072 0.5 L 74.09075236388144 0.5 L 74.09075236388144 3.5 L 81.09075236388144 0 L 74.09075236388144 -3.5 L 74.09075236388144 -0.5 L 60.55123555694072 -0.5 Z"/><text text-anchor="middle" pointer-events="none" font-size="8px" fill="#000000" x="49.54537618194072" y="3" font-family="sans-serif">road</text></g><g class="relationship" transform="translate(-74.52863896204431 193.35362032343028) rotate(344.80159686709374)"><path class="outline" fill="#A5ABB6" stroke="none" d="M 21.40063509461097,-12.933012701892217 L 21.90063509461097,-12.06698729810778 A 58.52855116880267 58.52855116880267 0 0 1 27.044281929611348,-14.706940549107479 L 26.63216462501868,-15.618071345017306 A 59.52855116880267 59.52855116880267 0 0 0 21.40063509461097,-12.933012701892217 Z M 72.267940901277,-17.042244718782754 L 71.91343823309643,-16.107189715987282 A 58.52855116880267 58.52855116880267 0 0 1 77.21168778456747,-13.793100776250911 L 75.8766072169433,-11.106549105809354 L 83.70282177686846,-11.125671396868102 L 78.99179520806636,-17.375169670172987 L 77.65671464044219,-14.688617999731429 A 59.52855116880267 59.52855116880267 0 0 0 72.267940901277,-17.042244718782754"/><text text-anchor="middle" pointer-events="none" font-size="8px" fill="#000000" x="49.32368015369923" y="-17.379603302033047" font-family="sans-serif">twowheeler</text></g><g class="relationship" transform="translate(-53.02286930964759 81.85182760098316) rotate(460.91680020215966)"><path class="outline" fill="#A5ABB6" stroke="none" d="M 24.018736134675446,6.953439040707552 L 24.277555179777966,5.987513214418485 A 118.7857609266653 118.7857609266653 0 0 0 30.280481437513988,7.429894436603405 L 30.072198131804022,8.40796297436674 A 119.7857609266653 119.7857609266653 0 0 1 24.018736134675446,6.953439040707552 Z M 76.43212198516815,9.106043221897835 L 76.25338162884415,8.122146944325266 A 118.7857609266653 118.7857609266653 0 0 0 82.29701475483932,6.861160868152516 L 81.60815839324853,3.941318935256851 L 89.22478865852767,5.740469679923273 L 83.21548990362705,10.754283445346736 L 82.52663354203625,7.834441512451071 A 119.7857609266653 119.7857609266653 0 0 1 76.43212198516815,9.106043221897835"/><text text-anchor="middle" pointer-events="none" font-size="8px" fill="#000000" x="53.22559026553805" y="13.52151882856161" transform="rotate(180 53.22559026553805 10.52151882856161)" font-family="sans-serif">twowheeler</text></g><g class="relationship" transform="translate(-74.52863896204431 193.35362032343028) rotate(406.0803725644163)"><path class="outline" fill="#A5ABB6" stroke="none" d="M 25 0.5 L 46.41759451308333 0.5 L 46.41759451308333 -0.5 L 25 -0.5 Z M 65.75353201308333 0.5 L 87.17112652616666 0.5 L 87.17112652616666 3.5 L 94.17112652616666 0 L 87.17112652616666 -3.5 L 87.17112652616666 -0.5 L 65.75353201308333 -0.5 Z"/><text text-anchor="middle" pointer-events="none" font-size="8px" fill="#000000" x="56.08556326308333" y="3" font-family="sans-serif">trek</text></g><g class="relationship" transform="translate(8.134248735755337 279.19419578152343) rotate(342.7868345635279)"><path class="outline" fill="#A5ABB6" stroke="none" d="M 25 0.5 L 44.727721164813175 0.5 L 44.727721164813175 -0.5 L 25 -0.5 Z M 64.06365866481318 0.5 L 83.79137982962635 0.5 L 83.79137982962635 3.5 L 90.79137982962635 0 L 83.79137982962635 -3.5 L 83.79137982962635 -0.5 L 64.06365866481318 -0.5 Z"/><text text-anchor="middle" pointer-events="none" font-size="8px" fill="#000000" x="54.395689914813175" y="3" font-family="sans-serif">trek</text></g></g><g class="layer nodes"><g class="node" transform="translate(97.28674118887237,-82.38537653148433)"><circle class="outline" cx="0" cy="0" r="25" fill="#F79767" stroke="#f36924" stroke-width="2px"/><text text-anchor="middle" pointer-events="none" font-family="sans-serif" dy="1.5625" font-size="25" fill="#FFFFFF"/><text text-anchor="middle" pointer-events="none" x="0" y="5" font-size="10px" fill="#FFFFFF" font-family="sans-serif"> Darjeeling</text></g><g class="node" transform="translate(118.73937771088225,244.92833686562378)"><circle class="outline" cx="0" cy="0" r="25" fill="#F16667" stroke="#eb2728" stroke-width="2px"/><text text-anchor="middle" pointer-events="none" font-family="sans-serif" dy="1.5625" font-size="25" fill="#FFFFFF"/><text text-anchor="middle" pointer-events="none" x="0" y="5" font-size="10px" fill="#FFFFFF" font-family="sans-serif"> Sandak…</text></g><g class="node" transform="translate(172.09142902994557,-3.374790797844426)"><circle class="outline" cx="0" cy="0" r="25" fill="#57C7E3" stroke="#23b3d7" stroke-width="2px"/><text text-anchor="middle" pointer-events="none" font-family="sans-serif" dy="1.5625" font-size="25" fill="#2A2C34"/><text text-anchor="middle" pointer-events="none" x="0" y="5" font-size="10px" fill="#2A2C34" font-family="sans-serif"> Tumbling</text></g><g class="node" transform="translate(261.74538592414257,65.7686174744555)"><circle class="outline" cx="0" cy="0" r="25" fill="#57C7E3" stroke="#23b3d7" stroke-width="2px"/><text text-anchor="middle" pointer-events="none" font-family="sans-serif" dy="1.5625" font-size="25" fill="#2A2C34"/><text text-anchor="middle" pointer-events="none" x="0" y="5" font-size="10px" fill="#2A2C34" font-family="sans-serif"> Gairibus</text></g><g class="node" transform="translate(185.87073159045104,151.15562851213542)"><circle class="outline" cx="0" cy="0" r="25" fill="#57C7E3" stroke="#23b3d7" stroke-width="2px"/><text text-anchor="middle" pointer-events="none" font-family="sans-serif" dy="1.5625" font-size="25" fill="#2A2C34"/><text text-anchor="middle" pointer-events="none" x="0" y="5" font-size="10px" fill="#2A2C34" font-family="sans-serif"> BhikeBh…</text></g><g class="node" transform="translate(24.691233110124912,1.8408193482061463)"><circle class="outline" cx="0" cy="0" r="25" fill="#F79767" stroke="#f36924" stroke-width="2px"/><text text-anchor="middle" pointer-events="none" font-family="sans-serif" dy="1.5625" font-size="25" fill="#FFFFFF"/><text text-anchor="middle" pointer-events="none" x="0" y="5" font-size="10px" fill="#FFFFFF" font-family="sans-serif"> Rimbik</text></g><g class="node" transform="translate(-53.02286930964759,81.85182760098316)"><circle class="outline" cx="0" cy="0" r="25" fill="#57C7E3" stroke="#23b3d7" stroke-width="2px"/><text text-anchor="middle" pointer-events="none" font-family="sans-serif" dy="1.5625" font-size="25" fill="#2A2C34"/><text text-anchor="middle" pointer-events="none" x="0" y="5" font-size="10px" fill="#2A2C34" font-family="sans-serif"> Sirikhola</text></g><g class="node" transform="translate(27.851462184347763,165.54062648262018)"><circle class="outline" cx="0" cy="0" r="25" fill="#57C7E3" stroke="#23b3d7" stroke-width="2px"/><text text-anchor="middle" pointer-events="none" font-family="sans-serif" dy="1.5625" font-size="25" fill="#2A2C34"/><text text-anchor="middle" pointer-events="none" x="0" y="5" font-size="10px" fill="#2A2C34" font-family="sans-serif"> Gurdum</text></g><g class="node" transform="translate(-74.52863896204431,193.35362032343028)"><circle class="outline" cx="0" cy="0" r="25" fill="#57C7E3" stroke="#23b3d7" stroke-width="2px"/><text text-anchor="middle" pointer-events="none" font-family="sans-serif" dy="1.5625" font-size="25" fill="#2A2C34"/><text text-anchor="middle" pointer-events="none" x="0" y="5" font-size="10px" fill="#2A2C34" font-family="sans-serif"> Rammam</text></g><g class="node" transform="translate(8.134248735755337,279.19419578152343)"><circle class="outline" cx="0" cy="0" r="25" fill="#F16667" stroke="#eb2728" stroke-width="2px"/><text text-anchor="middle" pointer-events="none" font-family="sans-serif" dy="1.5625" font-size="25" fill="#FFFFFF"/><text text-anchor="middle" pointer-events="none" x="0" y="5" font-size="10px" fill="#FFFFFF" font-family="sans-serif"> Sabargr…</text></g></g></svg>