<svg xmlns="http://www.w3.org/2000/svg" width="300.700927734375" height="155.88861083984375" viewBox="-151.64321899414062 24.413818359375 300.700927734375 155.88861083984375"><title>Neo4j Graph Visualization</title><desc>Created using Neo4j (http://www.neo4j.com/)</desc><g class="layer relationships"><g class="relationship" transform="translate(-122.6432170219716 103.3607727990078) rotate(359.1346042435615)"><path class="outline" fill="#A5ABB6" stroke="none" d="M 5.987513214418485,-24.277555179777966 L 6.953439040707552,-24.018736134675446 A 59.97518555162863 59.97518555162863 0 0 1 45.16785468910267,-65.13748731097866 L 44.83909930750524,-66.08190242048863 A 60.97518555162863 60.97518555162863 0 0 0 5.987513214418485,-24.277555179777966 Z M 79.05848195304708,-67.80104282461842 L 78.82603555500305,-66.8284336163357 A 59.97518555162863 59.97518555162863 0 0 1 120.96914661323166,-29.746747408979083 L 118.16378004057897,-28.6837712130824 L 123.91698549909935,-23.37805477210562 L 124.70963537676856,-31.16404900350799 L 121.90426880411587,-30.10107280761131 A 60.97518555162863 60.97518555162863 0 0 0 79.05848195304708,-67.80104282461842"/><text text-anchor="middle" pointer-events="none" font-size="8px" fill="#000000" x="61.85064637835857" y="-65.89502784280239" font-family="sans-serif">FLIGHT</text></g><g class="relationship" transform="translate(10.116758671970612 101.35541292758305) rotate(359.13671426030226)"><path class="outline" fill="#A5ABB6" stroke="none" d="M 5.987513214418485,24.277555179777966 L 6.953439040707552,24.018736134675446 A 47.83894165025989 47.83894165025989 0 0 0 33.799162899075384,55.38219739464816 L 33.394405922520306,56.29662168890657 A 48.83894165025989 48.83894165025989 0 0 1 5.987513214418485,24.277555179777966 Z M 67.40219263164107,58.35399805095173 L 67.11062438983548,57.397448020702186 A 47.83894165025989 47.83894165025989 0 0 0 97.54152486650258,29.499062980260238 L 94.75848566961236,28.378932260847282 L 100.61900307794785,23.19199330741853 L 101.25224379568957,30.99257060614418 L 98.46920459879934,29.872439886731225 A 48.83894165025989 48.83894165025989 0 0 1 67.40219263164107,58.35399805095173"/><text text-anchor="middle" pointer-events="none" font-size="8px" fill="#000000" x="50.24327379608468" y="62.887832502856696" font-family="sans-serif">FLIGHT</text></g><g class="relationship" transform="translate(-122.6432170219716 103.3607727990078) rotate(359.1346042435615)"><path class="outline" fill="#A5ABB6" stroke="none" d="M 17.324116139070416,-18.03122292025696 L 18.031222920256962,-17.324116139070412 A 66.26127485671337 66.26127485671337 0 0 1 45.690124576829355,-33.8904466581493 L 45.400439611271665,-34.84756870926391 A 67.26127485671337 67.26127485671337 0 0 0 17.324116139070416,-18.03122292025696 Z M 79.69794189135487,-36.08019995173771 L 79.4777123131703,-35.1047518839798 A 66.26127485671337 66.26127485671337 0 0 1 108.25448697583278,-20.56668503416598 L 106.29092074345441,-18.298556366946368 L 113.87404823807493,-16.363051936486393 L 110.8725752856706,-23.590856590458802 L 108.90900905329224,-21.32272792323919 A 67.26127485671337 67.26127485671337 0 0 0 79.69794189135487,-36.08019995173771"/><text text-anchor="middle" pointer-events="none" font-size="8px" fill="#000000" x="62.48720839420005" y="-34.18852018359581" font-family="sans-serif">FLIGHT</text></g><g class="relationship" transform="translate(-122.6432170219716 103.3607727990078) rotate(359.1346042435615)"><path class="outline" fill="#A5ABB6" stroke="none" d="M 24.018736134675446,-6.953439040707552 L 24.277555179777966,-5.987513214418485 A 156.8951948866116 156.8951948866116 0 0 1 45.72799629115882,-10.159651863833005 L 45.605895525586035,-11.15216957301837 A 157.8951948866116 157.8951948866116 0 0 0 24.018736134675446,-6.953439040707552 Z M 80.0888095712592,-11.599893278772981 L 79.99251918141755,-10.604539994343696 A 156.8951948866116 156.8951948866116 0 0 1 101.54405241983015,-6.99073592434301 L 100.84309342465852,-4.073775779416792 L 108.4671192571866,-5.8413249597635755 L 102.47866441339232,-10.880016117577966 L 101.77770541822069,-7.963055972651748 A 157.8951948866116 157.8951948866116 0 0 0 80.0888095712592,-11.599893278772981"/><text text-anchor="middle" pointer-events="none" font-size="8px" fill="#000000" x="62.84158391136102" y="-8.820321985897579" font-family="sans-serif">FLIGHT</text></g><g class="relationship" transform="translate(10.116758671970612 101.35541292758305) rotate(539.1346042435615)"><path class="outline" fill="#A5ABB6" stroke="none" d="M 24.018736134675446,-6.953439040707552 L 24.277555179777966,-5.987513214418485 A 156.8951948866116 156.8951948866116 0 0 1 45.72799629115882,-10.159651863833005 L 45.605895525586035,-11.15216957301837 A 157.8951948866116 157.8951948866116 0 0 0 24.018736134675446,-6.953439040707552 Z M 80.0888095712592,-11.599893278772981 L 79.99251918141755,-10.604539994343696 A 156.8951948866116 156.8951948866116 0 0 1 101.54405241983015,-6.99073592434301 L 100.84309342465852,-4.073775779416792 L 108.4671192571866,-5.8413249597635755 L 102.47866441339232,-10.880016117577966 L 101.77770541822069,-7.963055972651748 A 157.8951948866116 157.8951948866116 0 0 0 80.0888095712592,-11.599893278772981"/><text text-anchor="middle" pointer-events="none" font-size="8px" fill="#000000" x="62.84158391136102" y="-8.820321985897579" transform="rotate(180 62.84158391136102 -11.820321985897579)" font-family="sans-serif">FLIGHT</text></g><g class="relationship" transform="translate(10.116758671970612 101.35541292758305) rotate(359.13671426030226)"><path class="outline" fill="#A5ABB6" stroke="none" d="M 10.396609043987748,22.74116356711926 L 11.29757791189017,22.307279828001697 A 46.466345134217995 46.466345134217995 0 0 0 34.11080911529824,44.52743512305787 L 33.70080270931341,45.439517765723224 A 47.466345134217995 47.466345134217995 0 0 1 10.396609043987748,22.74116356711926 Z M 67.68495051364192,47.33640645928349 L 67.37899389976008,46.384361003214316 A 46.466345134217995 46.466345134217995 0 0 0 92.52333115920992,26.841046978729914 L 89.98207106467358,25.24668280078399 L 96.66705759017312,21.177167454469455 L 95.91167795192503,28.96686588265781 L 93.37041785738869,27.372501704711887 A 47.466345134217995 47.466345134217995 0 0 1 67.68495051364192,47.33640645928349"/><text text-anchor="middle" pointer-events="none" font-size="8px" fill="#000000" x="50.54486817048398" y="52.03964154529961" font-family="sans-serif">FLIGHT</text></g><g class="relationship" transform="translate(10.116758671970612 101.35541292758305) rotate(359.13671426030226)"><path class="outline" fill="#A5ABB6" stroke="none" d="M 14.44320574945421,20.411854586953456 L 15.247803529220876,19.818034401379958 A 47.12230844684147 47.12230844684147 0 0 0 34.337073205186414,35.03449622071564 L 33.9375759034131,35.95123059111736 A 48.12230844684147 48.12230844684147 0 0 1 14.44320574945421,20.411854586953456 Z M 67.94933982088034,37.62996381102901 L 67.64205964220427,36.678344721375595 A 47.12230844684147 47.12230844684147 0 0 0 88.13698691285634,23.415657089084807 L 85.91035499799919,21.405157072735747 L 93.19925893681366,18.555265957142954 L 91.10582946599921,26.096323777550218 L 88.87919755114206,24.08582376120116 A 48.12230844684147 48.12230844684147 0 0 1 67.94933982088034,37.62996381102901"/><text text-anchor="middle" pointer-events="none" font-size="8px" fill="#000000" x="50.814651468345446" y="42.400262992556065" font-family="sans-serif">FLIGHT</text></g><g class="relationship" transform="translate(10.116758671970612 101.35541292758305) rotate(359.13671426030226)"><path class="outline" fill="#A5ABB6" stroke="none" d="M 17.9862104268602,17.370844380187897 L 18.666383164631117,16.637792508358068 A 50.71641834903513 50.71641834903513 0 0 0 34.4627025862836,26.603211521725278 L 34.09399347184942,27.53275635062443 A 51.71641834903513 51.71641834903513 0 0 1 17.9862104268602,17.370844380187897 Z M 68.19459284914633,28.943543022777526 L 67.90392530011647,27.986718913580347 A 50.71641834903513 50.71641834903513 0 0 0 84.46941969908237,19.360150725668866 L 82.61752760367092,16.99996097334966 L 90.2851778037291,15.432434128428696 L 86.93860915963096,22.50707039542781 L 85.08671706421951,20.146880643108602 A 51.71641834903513 51.71641834903513 0 0 1 68.19459284914633,28.943543022777526"/><text text-anchor="middle" pointer-events="none" font-size="8px" fill="#000000" x="51.045228662937134" y="33.632670992091874" font-family="sans-serif">FLIGHT</text></g><g class="relationship" transform="translate(10.116758671970612 101.35541292758305) rotate(359.13671426030226)"><path class="outline" fill="#A5ABB6" stroke="none" d="M 20.90208894244944,13.724164012497553 L 21.434121018964774,12.87743981326927 A 59.635854048266694 59.635854048266694 0 0 0 34.48648038981007,19.01842538200991 L 34.17331596563491,19.96812430452748 A 60.635854048266694 60.635854048266694 0 0 1 20.90208894244944,13.724164012497553 Z M 68.41449142875297,21.068584098386367 L 68.16295406055522,20.10073651100489 A 59.635854048266694 59.635854048266694 0 0 0 81.58269490454974,14.810524362026458 L 80.1529986048111,12.17310735091243 L 87.97495064710557,11.91413583115531 L 83.48895663753459,18.32708037684516 L 82.05926033779595,15.689663365731134 A 60.635854048266694 60.635854048266694 0 0 1 68.41449142875297,21.068584098386367"/><text text-anchor="middle" pointer-events="none" font-size="8px" fill="#000000" x="51.23062987187981" y="25.487140491418586" font-family="sans-serif">FLIGHT</text></g><g class="relationship" transform="translate(10.116758671970612 101.35541292758305) rotate(359.13671426030226)"><path class="outline" fill="#A5ABB6" stroke="none" d="M 23.08917320392191,9.598962483481976 L 23.454514228288303,8.668088734837774 A 81.3152426729604 81.3152426729604 0 0 0 34.42949147671767,12.10192640566197 L 34.19911871768093,13.07502886270018 A 82.3152426729604 82.3152426729604 0 0 1 23.08917320392191,9.598962483481976 Z M 68.59126364459226,13.830196511760008 L 68.40382624101366,12.847919962238592 A 81.3152426729604 81.3152426729604 0 0 0 79.5189504949294,9.899127061214887 L 78.54656298138893,7.061088561914607 L 86.30310491222014,8.103229279503855 L 80.81546717965001,13.683178393615263 L 79.84307966610955,10.845139894314983 A 82.3152426729604 82.3152426729604 0 0 1 68.59126364459226,13.830196511760008"/><text text-anchor="middle" pointer-events="none" font-size="8px" fill="#000000" x="51.36627794448343" y="17.769390791429657" font-family="sans-serif">FLIGHT</text></g><g class="relationship" transform="translate(10.116758671970612 101.35541292758305) rotate(539.1346042435615)"><path class="outline" fill="#A5ABB6" stroke="none" d="M 17.324116139070416,-18.03122292025696 L 18.031222920256962,-17.324116139070412 A 66.26127485671337 66.26127485671337 0 0 1 45.690124576829355,-33.8904466581493 L 45.400439611271665,-34.84756870926391 A 67.26127485671337 67.26127485671337 0 0 0 17.324116139070416,-18.03122292025696 Z M 79.69794189135487,-36.08019995173771 L 79.4777123131703,-35.1047518839798 A 66.26127485671337 66.26127485671337 0 0 1 108.25448697583278,-20.56668503416598 L 106.29092074345441,-18.298556366946368 L 113.87404823807493,-16.363051936486393 L 110.8725752856706,-23.590856590458802 L 108.90900905329224,-21.32272792323919 A 67.26127485671337 67.26127485671337 0 0 0 79.69794189135487,-36.08019995173771"/><text text-anchor="middle" pointer-events="none" font-size="8px" fill="#000000" x="62.48720839420005" y="-34.18852018359581" transform="rotate(180 62.48720839420005 -37.18852018359581)" font-family="sans-serif">FLIGHT</text></g><g class="relationship" transform="translate(10.116758671970612 101.35541292758305) rotate(359.13671426030226)"><path class="outline" fill="#A5ABB6" stroke="none" d="M 24.471206027250748,5.139073415689509 L 24.657117634413662,4.15650694245622 A 153.32657860160842 153.32657860160842 0 0 0 34.33543679643168,5.669270279647776 L 34.21264744276381,6.661703035367708 A 154.32657860160842 154.32657860160842 0 0 1 24.471206027250748,5.139073415689509 Z M 68.69562939860033,7.0458079044618955 L 68.59497712433674,6.050886239361773 A 153.32657860160842 153.32657860160842 0 0 0 78.30459194482577,4.754084498933937 L 77.81265602821362,1.7946928293594357 L 85.29182849326831,4.099465971767985 L 78.96050650030865,8.699940058366606 L 78.4685705836965,5.740548388792105 A 154.32657860160842 154.32657860160842 0 0 1 68.69562939860033,7.0458079044618955"/><text text-anchor="middle" pointer-events="none" font-size="8px" fill="#000000" x="51.448945074289206" y="10.319987700654053" font-family="sans-serif">FLIGHT</text></g><g class="relationship" transform="translate(10.116758671970612 101.35541292758305) rotate(359.13671426030226)"><path class="outline" fill="#A5ABB6" stroke="none" d="M 25 0.5 L 34.25405661986124 0.5 L 34.25405661986124 -0.5 L 25 -0.5 Z M 68.69936911986125 0.5 L 77.95342573972248 0.5 L 77.95342573972248 3.5 L 84.95342573972248 0 L 77.95342573972248 -3.5 L 77.95342573972248 -0.5 L 68.69936911986125 -0.5 Z"/><text text-anchor="middle" pointer-events="none" font-size="8px" fill="#000000" x="51.47671286986124" y="3" font-family="sans-serif">FLIGHT</text></g><g class="relationship" transform="translate(10.116758671970612 101.35541292758305) rotate(359.13671426030226)"><path class="outline" fill="#A5ABB6" stroke="none" d="M 24.471206027250748,-5.139073415689509 L 24.657117634413662,-4.15650694245622 A 153.32657860160842 153.32657860160842 0 0 1 34.33543679643168,-5.669270279647776 L 34.21264744276381,-6.661703035367708 A 154.32657860160842 154.32657860160842 0 0 0 24.471206027250748,-5.139073415689509 Z M 68.69562939860037,-7.0458079044618955 L 68.5949771243368,-6.050886239361773 A 153.32657860160842 153.32657860160842 0 0 1 78.30459194482577,-4.754084498933937 L 77.81265602821362,-1.7946928293594357 L 85.29182849326831,-4.099465971767985 L 78.96050650030865,-8.699940058366606 L 78.4685705836965,-5.740548388792105 A 154.32657860160842 154.32657860160842 0 0 0 68.69562939860037,-7.0458079044618955"/><text text-anchor="middle" pointer-events="none" font-size="8px" fill="#000000" x="51.44894507428923" y="-4.319987700654053" font-family="sans-serif">FLIGHT</text></g><g class="relationship" transform="translate(10.116758671970612 101.35541292758305) rotate(359.13671426030226)"><path class="outline" fill="#A5ABB6" stroke="none" d="M 23.08917320392191,-9.598962483481976 L 23.454514228288303,-8.668088734837774 A 81.3152426729604 81.3152426729604 0 0 1 34.429491476717665,-12.10192640566197 L 34.199118717680925,-13.07502886270018 A 82.3152426729604 82.3152426729604 0 0 0 23.08917320392191,-9.598962483481976 Z M 68.59126364459227,-13.830196511760008 L 68.40382624101366,-12.847919962238592 A 81.3152426729604 81.3152426729604 0 0 1 79.5189504949294,-9.899127061214887 L 78.54656298138893,-7.061088561914607 L 86.30310491222014,-8.103229279503855 L 80.81546717965001,-13.683178393615263 L 79.84307966610955,-10.845139894314983 A 82.3152426729604 82.3152426729604 0 0 0 68.59126364459227,-13.830196511760008"/><text text-anchor="middle" pointer-events="none" font-size="8px" fill="#000000" x="51.36627794448343" y="-11.769390791429657" font-family="sans-serif">FLIGHT</text></g><g class="relationship" transform="translate(10.116758671970612 101.35541292758305) rotate(359.13671426030226)"><path class="outline" fill="#A5ABB6" stroke="none" d="M 20.90208894244944,-13.724164012497553 L 21.434121018964774,-12.87743981326927 A 59.635854048266694 59.635854048266694 0 0 1 34.48648038981008,-19.01842538200991 L 34.17331596563491,-19.96812430452748 A 60.635854048266694 60.635854048266694 0 0 0 20.90208894244944,-13.724164012497553 Z M 68.41449142875295,-21.068584098386374 L 68.16295406055521,-20.100736511004897 A 59.635854048266694 59.635854048266694 0 0 1 81.58269490454974,-14.810524362026458 L 80.1529986048111,-12.17310735091243 L 87.97495064710557,-11.91413583115531 L 83.48895663753459,-18.32708037684516 L 82.05926033779595,-15.689663365731134 A 60.635854048266694 60.635854048266694 0 0 0 68.41449142875295,-21.068584098386374"/><text text-anchor="middle" pointer-events="none" font-size="8px" fill="#000000" x="51.23062987187981" y="-19.487140491418586" font-family="sans-serif">FLIGHT</text></g><g class="relationship" transform="translate(10.116758671970612 101.35541292758305) rotate(359.13671426030226)"><path class="outline" fill="#A5ABB6" stroke="none" d="M 17.9862104268602,-17.370844380187897 L 18.666383164631117,-16.637792508358068 A 50.71641834903513 50.71641834903513 0 0 1 34.46270258628359,-26.60321152172527 L 34.093993471849416,-27.53275635062443 A 51.71641834903513 51.71641834903513 0 0 0 17.9862104268602,-17.370844380187897 Z M 68.19459284914635,-28.94354302277752 L 67.90392530011648,-27.98671891358034 A 50.71641834903513 50.71641834903513 0 0 1 84.46941969908237,-19.360150725668866 L 82.61752760367092,-16.99996097334966 L 90.2851778037291,-15.432434128428696 L 86.93860915963096,-22.50707039542781 L 85.08671706421951,-20.146880643108602 A 51.71641834903513 51.71641834903513 0 0 0 68.19459284914635,-28.94354302277752"/><text text-anchor="middle" pointer-events="none" font-size="8px" fill="#000000" x="51.045228662937134" y="-27.632670992091874" font-family="sans-serif">FLIGHT</text></g><g class="relationship" transform="translate(10.116758671970612 101.35541292758305) rotate(359.13671426030226)"><path class="outline" fill="#A5ABB6" stroke="none" d="M 14.44320574945421,-20.411854586953456 L 15.247803529220876,-19.818034401379958 A 47.12230844684147 47.12230844684147 0 0 1 34.337073205186414,-35.03449622071564 L 33.93757590341309,-35.95123059111736 A 48.12230844684147 48.12230844684147 0 0 0 14.44320574945421,-20.411854586953456 Z M 67.94933982088033,-37.629963811029015 L 67.64205964220425,-36.678344721375595 A 47.12230844684147 47.12230844684147 0 0 1 88.13698691285634,-23.415657089084807 L 85.91035499799919,-21.405157072735747 L 93.19925893681366,-18.555265957142954 L 91.10582946599921,-26.096323777550218 L 88.87919755114206,-24.08582376120116 A 48.12230844684147 48.12230844684147 0 0 0 67.94933982088033,-37.629963811029015"/><text text-anchor="middle" pointer-events="none" font-size="8px" fill="#000000" x="50.81465146834543" y="-36.400262992556065" font-family="sans-serif">FLIGHT</text></g><g class="relationship" transform="translate(10.116758671970612 101.35541292758305) rotate(359.13671426030226)"><path class="outline" fill="#A5ABB6" stroke="none" d="M 10.396609043987748,-22.74116356711926 L 11.29757791189017,-22.307279828001697 A 46.466345134217995 46.466345134217995 0 0 1 34.11080911529823,-44.52743512305787 L 33.70080270931341,-45.439517765723224 A 47.466345134217995 47.466345134217995 0 0 0 10.396609043987748,-22.74116356711926 Z M 67.68495051364194,-47.33640645928349 L 67.37899389976009,-46.384361003214316 A 46.466345134217995 46.466345134217995 0 0 1 92.52333115920992,-26.841046978729914 L 89.98207106467358,-25.24668280078399 L 96.66705759017312,-21.177167454469455 L 95.91167795192503,-28.96686588265781 L 93.37041785738869,-27.372501704711887 A 47.466345134217995 47.466345134217995 0 0 0 67.68495051364194,-47.33640645928349"/><text text-anchor="middle" pointer-events="none" font-size="8px" fill="#000000" x="50.54486817048399" y="-46.03964154529961" font-family="sans-serif">FLIGHT</text></g><g class="relationship" transform="translate(10.116758671970612 101.35541292758305) rotate(539.1346042435615)"><path class="outline" fill="#A5ABB6" stroke="none" d="M 5.987513214418485,-24.277555179777966 L 6.953439040707552,-24.018736134675446 A 59.97518555162863 59.97518555162863 0 0 1 45.16785468910267,-65.13748731097866 L 44.83909930750524,-66.08190242048863 A 60.97518555162863 60.97518555162863 0 0 0 5.987513214418485,-24.277555179777966 Z M 79.05848195304708,-67.80104282461842 L 78.82603555500305,-66.8284336163357 A 59.97518555162863 59.97518555162863 0 0 1 120.96914661323166,-29.746747408979083 L 118.16378004057897,-28.6837712130824 L 123.91698549909935,-23.37805477210562 L 124.70963537676856,-31.16404900350799 L 121.90426880411587,-30.10107280761131 A 60.97518555162863 60.97518555162863 0 0 0 79.05848195304708,-67.80104282461842"/><text text-anchor="middle" pointer-events="none" font-size="8px" fill="#000000" x="61.85064637835857" y="-65.89502784280239" transform="rotate(180 61.85064637835857 -68.89502784280239)" font-family="sans-serif">FLIGHT</text></g><g class="relationship" transform="translate(10.116758671970612 101.35541292758305) rotate(359.13671426030226)"><path class="outline" fill="#A5ABB6" stroke="none" d="M 5.987513214418485,-24.277555179777966 L 6.953439040707552,-24.018736134675446 A 47.83894165025989 47.83894165025989 0 0 1 33.79916289907539,-55.38219739464816 L 33.39440592252031,-56.29662168890657 A 48.83894165025989 48.83894165025989 0 0 0 5.987513214418485,-24.277555179777966 Z M 67.40219263164106,-58.35399805095173 L 67.11062438983548,-57.397448020702186 A 47.83894165025989 47.83894165025989 0 0 1 97.54152486650258,-29.499062980260238 L 94.75848566961236,-28.378932260847282 L 100.61900307794785,-23.19199330741853 L 101.25224379568957,-30.99257060614418 L 98.46920459879934,-29.872439886731225 A 48.83894165025989 48.83894165025989 0 0 0 67.40219263164106,-58.35399805095173"/><text text-anchor="middle" pointer-events="none" font-size="8px" fill="#000000" x="50.24327379608469" y="-56.887832502856696" font-family="sans-serif">FLIGHT</text></g></g><g class="layer nodes"><g class="node" transform="translate(-122.6432170219716,103.3607727990078)"><circle class="outline" cx="0" cy="0" r="25" fill="#ECB5C9" stroke="#da7298" stroke-width="2px"/><text text-anchor="middle" pointer-events="none" font-family="sans-serif" dy="1.5625" font-size="25" fill="#2A2C34"/><text text-anchor="middle" pointer-events="none" x="0" y="5" font-size="10px" fill="#2A2C34" font-family="sans-serif"> MSN</text></g><g class="node" transform="translate(120.0577038416395,99.6987877133218)"><circle class="outline" cx="0" cy="0" r="25" fill="#ECB5C9" stroke="#da7298" stroke-width="2px"/><text text-anchor="middle" pointer-events="none" font-family="sans-serif" dy="1.5625" font-size="25" fill="#2A2C34"/><text text-anchor="middle" pointer-events="none" x="0" y="5" font-size="10px" fill="#2A2C34" font-family="sans-serif"> GRR</text></g><g class="node" transform="translate(10.116758671970612,101.35541292758305)"><circle class="outline" cx="0" cy="0" r="25" fill="#ECB5C9" stroke="#da7298" stroke-width="2px"/><text text-anchor="middle" pointer-events="none" font-family="sans-serif" dy="1.5625" font-size="25" fill="#2A2C34"/><text text-anchor="middle" pointer-events="none" x="0" y="5" font-size="10px" fill="#2A2C34" font-family="sans-serif"> ORD</text></g></g></svg>