<svg xmlns="http://www.w3.org/2000/svg" width="284.7593688964844" height="270.6783447265625" viewBox="-36.67222213745117 -40.66501998901367 284.7593688964844 270.6783447265625"><title>Neo4j Graph Visualization</title><desc>Created using Neo4j (http://www.neo4j.com/)</desc><g class="layer relationships"><g class="relationship" transform="translate(138.77083960836038 201.01333073798958) rotate(253.8711746336229)"><path class="outline" fill="#A5ABB6" stroke="none" d="M 25 0.5 L 31.037224009899006 0.5 L 31.037224009899006 -0.5 L 25 -0.5 Z M 76.599724009899 0.5 L 82.63694801979801 0.5 L 82.63694801979801 3.5 L 89.63694801979801 0 L 82.63694801979801 -3.5 L 82.63694801979801 -0.5 L 76.599724009899 -0.5 Z"/><text text-anchor="middle" pointer-events="none" font-size="8px" fill="#000000" x="53.818474009899006" y="3" transform="rotate(180 53.818474009899006 0)" font-family="sans-serif">ACTED_IN</text></g><g class="relationship" transform="translate(219.08717224241738 112.42238433105264) rotate(190.86787734042474)"><path class="outline" fill="#A5ABB6" stroke="none" d="M 25 0.5 L 30.824081276261786 0.5 L 30.824081276261786 -0.5 L 25 -0.5 Z M 76.38658127626178 0.5 L 82.21066255252357 0.5 L 82.21066255252357 3.5 L 89.21066255252357 0 L 82.21066255252357 -3.5 L 82.21066255252357 -0.5 L 76.38658127626178 -0.5 Z"/><text text-anchor="middle" pointer-events="none" font-size="8px" fill="#000000" x="53.605331276261786" y="3" transform="rotate(180 53.605331276261786 0)" font-family="sans-serif">ACTED_IN</text></g><g class="relationship" transform="translate(176.91885216864293 -0.6571454458244785) rotate(487.4007732078104)"><path class="outline" fill="#A5ABB6" stroke="none" d="M 25 0.5 L 31.337678509389562 0.5 L 31.337678509389562 -0.5 L 25 -0.5 Z M 76.90017850938956 0.5 L 83.23785701877912 0.5 L 83.23785701877912 3.5 L 90.23785701877912 0 L 83.23785701877912 -3.5 L 83.23785701877912 -0.5 L 76.90017850938956 -0.5 Z"/><text text-anchor="middle" pointer-events="none" font-size="8px" fill="#000000" x="54.11892850938956" y="3" transform="rotate(180 54.11892850938956 0)" font-family="sans-serif">ACTED_IN</text></g><g class="relationship" transform="translate(56.71726232383136 -11.665020481219308) rotate(423.9147850356174)"><path class="outline" fill="#A5ABB6" stroke="none" d="M 25 0.5 L 35.705408662159165 0.5 L 35.705408662159165 -0.5 L 25 -0.5 Z M 71.47884616215916 0.5 L 82.18425482431833 0.5 L 82.18425482431833 3.5 L 89.18425482431833 0 L 82.18425482431833 -3.5 L 82.18425482431833 -0.5 L 71.47884616215916 -0.5 Z"/><text text-anchor="middle" pointer-events="none" font-size="8px" fill="#000000" x="53.592127412159165" y="3" font-family="sans-serif">WROTE</text></g><g class="relationship" transform="translate(-7.672223312461923 89.12438722115414) rotate(360.881967911236)"><path class="outline" fill="#A5ABB6" stroke="none" d="M 25 0.5 L 35.91864536952934 0.5 L 35.91864536952934 -0.5 L 25 -0.5 Z M 71.69208286952934 0.5 L 82.61072823905867 0.5 L 82.61072823905867 3.5 L 89.61072823905867 0 L 82.61072823905867 -3.5 L 82.61072823905867 -0.5 L 71.69208286952934 -0.5 Z"/><text text-anchor="middle" pointer-events="none" font-size="8px" fill="#000000" x="53.80536411952934" y="3" font-family="sans-serif">WROTE</text></g><g class="relationship" transform="translate(36.126333323407835 183.57757727669954) rotate(307.3736502890364)"><path class="outline" fill="#A5ABB6" stroke="none" d="M 25 0.5 L 31.372131013592508 0.5 L 31.372131013592508 -0.5 L 25 -0.5 Z M 78.26275601359251 0.5 L 84.63488702718502 0.5 L 84.63488702718502 3.5 L 91.63488702718502 0 L 84.63488702718502 -3.5 L 84.63488702718502 -0.5 L 78.26275601359251 -0.5 Z"/><text text-anchor="middle" pointer-events="none" font-size="8px" fill="#000000" x="54.81744351359251" y="3" font-family="sans-serif">DIRECTED</text></g></g><g class="layer nodes"><g class="node" transform="translate(138.77083960836038,201.01333073798958)"><circle class="outline" cx="0" cy="0" r="25" fill="#F79767" stroke="#f36924" stroke-width="2px"/><text text-anchor="middle" pointer-events="none" font-family="sans-serif" dy="1.5625" font-size="25" fill="#FFFFFF"/><text text-anchor="middle" pointer-events="none" font-family="sans-serif" dy="1.5625" font-size="25" fill="#FFFFFF"/><text text-anchor="middle" pointer-events="none" font-family="sans-serif" dy="1.5625" font-size="25" fill="#FFFFFF"/><text text-anchor="middle" pointer-events="none" x="0" y="-5" font-size="10px" fill="#FFFFFF" font-family="sans-serif"> Samuel</text><text text-anchor="middle" pointer-events="none" x="0" y="5" font-size="10px" fill="#FFFFFF" font-family="sans-serif"> L.</text><text text-anchor="middle" pointer-events="none" x="0" y="15" font-size="10px" fill="#FFFFFF" font-family="sans-serif"> Jackson</text></g><g class="node" transform="translate(106.92492657641473,90.88854844782736)"><circle class="outline" cx="0" cy="0" r="25" fill="#57C7E3" stroke="#23b3d7" stroke-width="2px"/><text text-anchor="middle" pointer-events="none" font-family="sans-serif" dy="1.5625" font-size="25" fill="#2A2C34"/><text text-anchor="middle" pointer-events="none" font-family="sans-serif" dy="1.5625" font-size="25" fill="#2A2C34"/><text text-anchor="middle" pointer-events="none" font-family="sans-serif" dy="1.5625" font-size="25" fill="#2A2C34"/><text text-anchor="middle" pointer-events="none" x="0" y="-5" font-size="10px" fill="#2A2C34" font-family="sans-serif"> Captain</text><text text-anchor="middle" pointer-events="none" x="0" y="5" font-size="10px" fill="#2A2C34" font-family="sans-serif"> America:</text><text text-anchor="middle" pointer-events="none" x="0" y="15" font-size="10px" fill="#2A2C34" font-family="sans-serif"> The Fi…</text></g><g class="node" transform="translate(219.08717224241738,112.42238433105264)"><circle class="outline" cx="0" cy="0" r="25" fill="#F79767" stroke="#f36924" stroke-width="2px"/><text text-anchor="middle" pointer-events="none" font-family="sans-serif" dy="1.5625" font-size="25" fill="#FFFFFF"/><text text-anchor="middle" pointer-events="none" font-family="sans-serif" dy="1.5625" font-size="25" fill="#FFFFFF"/><text text-anchor="middle" pointer-events="none" x="0" y="0" font-size="10px" fill="#FFFFFF" font-family="sans-serif"> Hugo</text><text text-anchor="middle" pointer-events="none" x="0" y="10" font-size="10px" fill="#FFFFFF" font-family="sans-serif"> Weaving</text></g><g class="node" transform="translate(176.91885216864293,-0.6571454458244785)"><circle class="outline" cx="0" cy="0" r="25" fill="#F79767" stroke="#f36924" stroke-width="2px"/><text text-anchor="middle" pointer-events="none" font-family="sans-serif" dy="1.5625" font-size="25" fill="#FFFFFF"/><text text-anchor="middle" pointer-events="none" font-family="sans-serif" dy="1.5625" font-size="25" fill="#FFFFFF"/><text text-anchor="middle" pointer-events="none" x="0" y="0" font-size="10px" fill="#FFFFFF" font-family="sans-serif"> Chris</text><text text-anchor="middle" pointer-events="none" x="0" y="10" font-size="10px" fill="#FFFFFF" font-family="sans-serif"> Evans</text></g><g class="node" transform="translate(56.71726232383136,-11.665020481219308)"><circle class="outline" cx="0" cy="0" r="25" fill="#F79767" stroke="#f36924" stroke-width="2px"/><text text-anchor="middle" pointer-events="none" font-family="sans-serif" dy="1.5625" font-size="25" fill="#FFFFFF"/><text text-anchor="middle" pointer-events="none" font-family="sans-serif" dy="1.5625" font-size="25" fill="#FFFFFF"/><text text-anchor="middle" pointer-events="none" x="0" y="0" font-size="10px" fill="#FFFFFF" font-family="sans-serif"> Stephen</text><text text-anchor="middle" pointer-events="none" x="0" y="10" font-size="10px" fill="#FFFFFF" font-family="sans-serif"> McFeely</text></g><g class="node" transform="translate(-7.672223312461923,89.12438722115414)"><circle class="outline" cx="0" cy="0" r="25" fill="#F79767" stroke="#f36924" stroke-width="2px"/><text text-anchor="middle" pointer-events="none" font-family="sans-serif" dy="1.5625" font-size="25" fill="#FFFFFF"/><text text-anchor="middle" pointer-events="none" x="0" y="5" font-size="10px" fill="#FFFFFF" font-family="sans-serif"> Christop…</text></g><g class="node" transform="translate(36.126333323407835,183.57757727669954)"><circle class="outline" cx="0" cy="0" r="25" fill="#F79767" stroke="#f36924" stroke-width="2px"/><text text-anchor="middle" pointer-events="none" font-family="sans-serif" dy="1.5625" font-size="25" fill="#FFFFFF"/><text text-anchor="middle" pointer-events="none" font-family="sans-serif" dy="1.5625" font-size="25" fill="#FFFFFF"/><text text-anchor="middle" pointer-events="none" x="0" y="0" font-size="10px" fill="#FFFFFF" font-family="sans-serif"> Joe</text><text text-anchor="middle" pointer-events="none" x="0" y="10" font-size="10px" fill="#FFFFFF" font-family="sans-serif"> Johnston</text></g></g></svg>